<?xml version="1.0" encoding="UTF-8" standalone="no"?>
<svg
   xmlns:dc="http://purl.org/dc/elements/1.1/"
   xmlns:cc="http://creativecommons.org/ns#"
   xmlns:rdf="http://www.w3.org/1999/02/22-rdf-syntax-ns#"
   xmlns:svg="http://www.w3.org/2000/svg"
   xmlns="http://www.w3.org/2000/svg"
   xmlns:sodipodi="http://sodipodi.sourceforge.net/DTD/sodipodi-0.dtd"
   xmlns:inkscape="http://www.inkscape.org/namespaces/inkscape"
   width="46"
   height="46"
   viewBox="0 0 46 46"
   id="svg2"
   version="1.1"
   inkscape:version="0.91 r13725"
   sodipodi:docname="logo.svg">
  <metadata
     id="metadata14">
    <rdf:RDF>
      <cc:Work
         rdf:about="">
        <dc:format>image/svg+xml</dc:format>
        <dc:type
           rdf:resource="http://purl.org/dc/dcmitype/StillImage" />
        <dc:title />
      </cc:Work>
    </rdf:RDF>
  </metadata>
  <defs
     id="defs12" />
  <sodipodi:namedview
     pagecolor="#ffffff"
     bordercolor="#666666"
     borderopacity="1"
     objecttolerance="10"
     gridtolerance="10"
     guidetolerance="10"
     inkscape:pageopacity="0"
     inkscape:pageshadow="2"
     inkscape:window-width="1280"
     inkscape:window-height="800"
     id="namedview10"
     showgrid="false"
     inkscape:zoom="5.1304348"
     inkscape:cx="-3.6059321"
     inkscape:cy="53.963205"
     inkscape:window-x="0"
     inkscape:window-y="0"
     inkscape:window-maximized="0"
     inkscape:current-layer="svg2" />
  <g
     id="g6"
     transform="matrix(0.6950178,0,0,0.6950178,7.2074806,0.77587778)"
     style="fill:#293152">
    <path
       d="m 16.666,28.957 c 0,0 0.26,1.95 1.9,2.852 L 18.13,30.994 c 0,0 0.835,-2.192 -1.464,-2.038 z M 37.908,8.085 c -8.225,-8.23 -21.6,-8.23 -29.823,-0.002 -8.223,8.226 -8.223,21.608 0,29.834 8.223,8.226 21.603,8.224 29.823,0 8.233,-8.226 8.233,-21.608 0,-29.832 z m -2.18,27.648 c -0.23,0.228 -0.454,0.446 -0.688,0.656 -5.066,4.13 -8.97,2.074 -9.014,2.074 -2.645,-0.528 -3.958,-0.537 -4.7,-1.033 -0.186,-0.124 -0.785,-0.445 -0.92,-0.368 -0.54,0.322 -1.283,0.486 -2.048,-0.12 -0.07,-0.058 -0.13,-0.117 -0.192,-0.174 -0.84,-0.84 -0.554,-1.706 -0.275,-2.006 0.194,-0.197 -0.147,-0.75 -0.147,-0.75 0,0 -0.993,-1.477 -1.672,-2.364 -0.746,-0.975 -0.847,-2.908 -0.856,-2.933 l -0.01,-0.028 c -0.755,-0.897 -0.834,-1.173 -1.095,-1.61 -0.153,-0.258 -0.387,-0.5 -0.585,-0.708 -0.136,-0.14 -0.263,-0.268 -0.35,-0.388 -0.022,-0.026 -0.026,-0.064 -0.018,-0.124 0.067,-0.42 0.97,-1.342 1.163,-1.47 0.238,-0.155 1.264,-0.778 1.264,-0.778 0,0 0.578,-0.906 1.56,-0.906 0.885,0.003 1.426,-0.05 2.953,0.447 l 0.636,0.202 c 1.065,0.342 2.003,0.744 2.75,1.066 0.633,0.273 1.14,0.493 1.527,0.594 1.316,0.348 3.64,-0.718 4.13,-1.17 0.806,-0.73 1.15,-1.22 1.155,-1.623 0.008,-0.227 -0.092,-0.423 -0.32,-0.66 -0.117,-0.11 -0.27,-0.313 -0.463,-0.507 -0.03,-0.03 -0.063,-0.066 -0.102,-0.094 -2.23,-2.37 -1.844,-3.855 -1.84,-3.88 0.094,-1.065 -0.516,-1.748 -1.172,-2.457 l -0.11,-0.133 c -0.034,-0.032 -0.075,-0.086 -0.075,-0.086 0.95,0.156 1.596,0.538 3.45,0.744 1.056,0.113 0.722,0.104 1.564,0.082 1.16,-0.037 2.08,-0.14 2.143,-0.402 -0.113,-0.096 -0.627,0.03 -3.09,-0.912 -1.14,-0.438 -1.318,-0.502 -2.045,-0.743 -0.932,-0.314 -1.94,-0.75 -1.94,-0.75 4.017,1.054 5.33,1.466 7.17,1.492 0.708,0.013 1.132,-0.073 1.38,-0.124 0.262,-0.046 1.072,-0.23 1.166,-0.51 0.028,-0.05 -0.778,0.13 -2.27,-0.36 -4.687,-1.55 -5.087,-2.325 -7.687,-3.336 -0.904,-0.352 -1.2,-0.546 -3.94,-1.252 -1.254,-0.32 -3.15,-0.138 -3.407,0.024 -3.556,-0.835 -4.363,-0.743 -5.406,-0.52 6.955,-4.46 16.347,-3.656 22.43,2.43 0.825,0.825 1.556,1.714 2.196,2.655 l 0.084,0.13 c 1.953,2.923 2.994,6.353 2.994,9.945 -0.002,4.816 -1.875,9.334 -5.275,12.738 z M 23.922,15.405 c 1.765,0.63 2.332,2.51 2.332,2.51 -2.242,0.51 -1.77,-1.78 -1.77,-1.78 l -0.56,-0.73 z"
       id="path8"
       inkscape:connector-curvature="0" />
  </g>
  <path
     inkscape:connector-curvature="0"
     d="m 12.551943,34.825663 c -0.158656,0 -0.304271,0.01999 -0.430328,0.05956 -0.124968,0.03868 -0.24233,0.09237 -0.348389,0.160394 -0.104325,0.06781 -0.198864,0.145616 -0.277541,0.23103 -0.02129,0.02173 -0.04129,0.04499 -0.06193,0.06803 l 0,-0.439023 -1.059951,0 0,4.025729 1.059951,0 0,-2.255955 c 0,-0.277321 0.07303,-0.494225 0.216033,-0.645054 0.143442,-0.151268 0.327744,-0.224945 0.560729,-0.224945 0.237985,0 0.415114,0.07041 0.541168,0.215164 0.127359,0.14605 0.192778,0.361648 0.192778,0.640055 l 0,2.270517 1.060603,0 0,-2.538491 c 0,-0.471622 -0.128229,-0.854135 -0.379252,-1.136673 -0.25211,-0.285362 -0.613977,-0.430326 -1.074295,-0.430326 z m 3.907061,0.02934 c -0.322962,0 -0.602674,0.03042 -0.831964,0.08976 -0.227769,0.05978 -0.4538,0.140182 -0.670701,0.238636 l -0.07041,0.03218 0.294275,0.866086 0.08388,-0.03389 c 0.170177,-0.07107 0.34122,-0.128664 0.506396,-0.171696 0.163002,-0.04218 0.352736,-0.06303 0.564205,-0.06303 0.282539,0 0.501614,0.06389 0.648533,0.191254 0.136922,0.118227 0.207558,0.284713 0.215163,0.50857 -0.12106,-0.03477 -0.245589,-0.06411 -0.372298,-0.0865 -0.166479,-0.02934 -0.371645,-0.04455 -0.60963,-0.04455 -0.230374,0 -0.447061,0.02651 -0.64549,0.07954 -0.202122,0.05347 -0.378817,0.136922 -0.525954,0.248198 -0.149094,0.11214 -0.26689,0.254936 -0.349912,0.42424 -0.08323,0.169524 -0.125186,0.370126 -0.125186,0.596155 l 0,0.01457 c 0,0.207122 0.04129,0.39338 0.122141,0.553123 0.07912,0.158654 0.188213,0.294272 0.321658,0.400333 0.131707,0.105626 0.287756,0.18691 0.462494,0.241243 0.172781,0.05303 0.357953,0.08042 0.551381,0.08042 0.304272,0 0.567902,-0.05695 0.783282,-0.169522 0.143444,-0.07607 0.27102,-0.163004 0.380341,-0.261675 l 0,0.350565 1.046258,0 0,-2.370708 c 0,-0.536823 -0.148224,-0.961063 -0.440542,-1.260554 -0.292101,-0.300794 -0.741987,-0.452713 -1.337923,-0.452713 z m -0.182563,3.330903 c -0.191256,0 -0.354257,-0.04433 -0.483357,-0.131706 -0.118447,-0.08128 -0.177129,-0.196908 -0.177129,-0.353389 l 0,-0.01457 c 0,-0.157353 0.06412,-0.277323 0.196037,-0.368821 0.14127,-0.0965 0.343393,-0.145615 0.602676,-0.145615 0.164307,0 0.322745,0.01413 0.469448,0.04173 0.12388,0.02391 0.235156,0.05303 0.329481,0.08563 l 0,0.16083 c 0,0.107797 -0.02281,0.206469 -0.06695,0.293404 -0.04499,0.08758 -0.110839,0.16474 -0.191256,0.227335 -0.08519,0.06411 -0.185606,0.115183 -0.299924,0.151482 -0.115196,0.03564 -0.242983,0.05389 -0.379471,0.05389 z m 7.421832,-0.578334 -1.033654,-2.70193 -1.126238,0 1.641979,3.940316 c -0.06303,0.138442 -0.128229,0.234723 -0.194082,0.284276 -0.06824,0.05304 -0.15431,0.07824 -0.262978,0.07824 -0.08345,0 -0.164089,-0.01304 -0.240809,-0.03696 -0.08107,-0.02477 -0.15996,-0.05868 -0.238201,-0.09997 l -0.07824,-0.04173 -0.369907,0.811316 0.06954,0.03695 c 0.139746,0.07564 0.286448,0.135618 0.43728,0.179085 0.150615,0.0426 0.324702,0.06477 0.516175,0.06477 0.163003,0 0.311878,-0.02085 0.441629,-0.06217 0.131272,-0.04238 0.254283,-0.110412 0.364473,-0.201689 0.108669,-0.09128 0.208209,-0.209947 0.295577,-0.353826 0.08476,-0.139965 0.167349,-0.313833 0.247765,-0.517259 l 1.577865,-4.081584 -1.103419,0 -0.944763,2.701929 z"
     id="path3441"
     style="fill:#293152;fill-opacity:1" />
  <path
     inkscape:connector-curvature="0"
     style="fill:#e88126"
     d="m 30.616965,37.625611 c -0.134745,0.135401 -0.280363,0.247765 -0.43119,0.333178 -0.143878,0.08259 -0.316231,0.124316 -0.509876,0.124316 -0.157135,0 -0.302096,-0.03043 -0.432065,-0.09086 -0.129528,-0.06086 -0.244071,-0.143877 -0.33904,-0.246677 -0.09412,-0.103675 -0.167786,-0.226898 -0.220602,-0.367298 -0.0517,-0.140183 -0.07759,-0.292971 -0.07759,-0.452714 l 0,-0.01477 c 0,-0.154308 0.02608,-0.303401 0.07759,-0.444888 0.05263,-0.140616 0.124319,-0.262977 0.214728,-0.364256 0.08998,-0.100412 0.198645,-0.182129 0.324271,-0.243416 0.123879,-0.05868 0.260805,-0.08954 0.40859,-0.08954 0.207772,0 0.383598,0.04129 0.523127,0.123014 0.146485,0.08607 0.285586,0.198211 0.416856,0.33296 l 0.06238,0.06412 0.660704,-0.7133 -0.05218,-0.0576 c -0.185611,-0.206471 -0.407507,-0.374906 -0.656361,-0.500961 -0.251671,-0.127361 -0.571593,-0.19191 -0.947583,-0.19191 -0.298187,0 -0.577469,0.05695 -0.833923,0.16735 -0.25472,0.111282 -0.478791,0.264063 -0.664402,0.452929 -0.185819,0.189519 -0.33361,0.415983 -0.438148,0.670702 -0.103234,0.254284 -0.156484,0.527259 -0.156484,0.809143 l 0,0.01521 c 0,0.282537 0.05325,0.553556 0.156484,0.806318 0.104755,0.252763 0.252111,0.475533 0.438148,0.662877 0.186911,0.18691 0.408599,0.336872 0.661361,0.444888 0.252104,0.109098 0.532034,0.164307 0.82914,0.164307 0.386855,0 0.713944,-0.07171 0.968666,-0.211252 0.25037,-0.138442 0.477492,-0.320137 0.672003,-0.540516 l 0.0548,-0.05976 -0.651568,-0.641144 -0.05828,0.05934 z m 4.709254,-2.186842 c -0.189078,-0.189952 -0.418156,-0.341217 -0.678088,-0.449234 -0.258195,-0.108668 -0.547691,-0.163872 -0.854138,-0.163872 -0.307096,0 -0.593977,0.05695 -0.85413,0.167349 -0.260804,0.111282 -0.487484,0.262977 -0.676787,0.452931 -0.189737,0.189081 -0.340348,0.412937 -0.449016,0.66505 -0.108238,0.253196 -0.163869,0.527476 -0.163869,0.815012 l 0,0.01521 c 0,0.282538 0.05387,0.553775 0.159085,0.806319 0.106939,0.252546 0.256897,0.475967 0.447717,0.662877 0.188645,0.186909 0.416198,0.336873 0.676353,0.445541 0.259279,0.108238 0.544209,0.163437 0.84609,0.163437 0.306447,0 0.596593,-0.05651 0.859347,-0.167784 0.262328,-0.110411 0.490316,-0.262543 0.68027,-0.45206 0.188644,-0.189518 0.340129,-0.412942 0.448798,-0.665703 0.109319,-0.252764 0.163653,-0.524651 0.163653,-0.80784 l 0,-0.01477 c 0,-0.286884 -0.05433,-0.560295 -0.159961,-0.810666 -0.105626,-0.249939 -0.255587,-0.472708 -0.44554,-0.661791 z m -1.532226,2.644553 c -0.156044,0 -0.302095,-0.02998 -0.432498,-0.09063 -0.130402,-0.06063 -0.246896,-0.144748 -0.34339,-0.249938 -0.09563,-0.106498 -0.173002,-0.230377 -0.226028,-0.368821 -0.05433,-0.138008 -0.08193,-0.288187 -0.08193,-0.447714 l 0,-0.01521 c 0,-0.154744 0.02562,-0.304706 0.075,-0.445975 0.04929,-0.139097 0.121711,-0.260804 0.214729,-0.361433 0.09345,-0.100619 0.207995,-0.182562 0.339914,-0.242982 0.130836,-0.06041 0.278195,-0.09128 0.439673,-0.09128 0.161704,0 0.309922,0.03085 0.440542,0.09128 0.132578,0.06041 0.247762,0.143443 0.344263,0.247329 0.09563,0.103234 0.172562,0.227118 0.225596,0.367301 0.05387,0.140834 0.0815,0.292317 0.0815,0.450972 l 0,0.01521 c 0,0.154308 -0.02454,0.303402 -0.0743,0.442497 -0.05,0.136922 -0.121699,0.259284 -0.215163,0.362953 -0.09411,0.102152 -0.207769,0.18517 -0.339038,0.246242 -0.131494,0.06085 -0.281888,0.09086 -0.447716,0.09086 z m 8.361383,-2.847763 c -0.253413,-0.27167 -0.610718,-0.410114 -1.058426,-0.410114 -0.306448,0 -0.57486,0.06739 -0.799805,0.19995 -0.186038,0.109539 -0.352082,0.250371 -0.4977,0.419461 -0.103663,-0.167785 -0.238638,-0.307967 -0.407941,-0.417288 -0.203861,-0.133444 -0.455974,-0.202123 -0.748287,-0.202123 -0.152137,0 -0.29493,0.02021 -0.421199,0.05978 -0.126494,0.03868 -0.242337,0.09345 -0.342964,0.161916 -0.09932,0.06739 -0.189079,0.142789 -0.265796,0.225379 -0.02021,0.02129 -0.03846,0.04282 -0.0576,0.06433 l 0,-0.431196 -1.059951,0 0,4.025728 1.059951,0 0,-2.248783 c 0,-0.278191 0.06865,-0.497051 0.204954,-0.650705 0.134744,-0.152137 0.309054,-0.226032 0.532474,-0.226032 0.222554,0 0.389899,0.06867 0.509651,0.210381 0.122361,0.143444 0.184304,0.358172 0.184304,0.637883 l 0,2.27769 1.060167,0 0,-2.255956 c 0,-0.287535 0.06865,-0.507481 0.206469,-0.65266 0.136487,-0.14692 0.309707,-0.217773 0.531175,-0.217773 0.221679,0 0.389683,0.06889 0.509002,0.210816 0.121711,0.143444 0.184736,0.360781 0.184736,0.644622 l 0,2.270517 1.058426,0 0,-2.546318 c 4.41e-4,-0.49205 -0.127352,-0.878693 -0.381207,-1.149711 z"
     id="path3443" />
  <g
     transform="matrix(0.21733669,0,0,0.21733669,3.4803078,33.282138)"
     id="g3445"
     style="fill:#293152;fill-opacity:1">
    <path
       inkscape:connector-curvature="0"
       d="m 24.24,7.47 4.88,0 0,18.523 -4.88,0 z"
       id="path3447"
       style="fill:#293152;fill-opacity:1" />
    <circle
       cx="26.68"
       cy="3.138"
       r="2.7030001"
       id="circle3449"
       style="fill:#293152;fill-opacity:1" />
  </g>
  <path
     inkscape:connector-curvature="0"
     d="m 27.04178,38.432149 c 0,-0.324702 -0.262977,-0.587463 -0.58594,-0.587463 -0.325135,0 -0.588982,0.262978 -0.588982,0.587463 0,0.323396 0.263847,0.586809 0.588982,0.586809 0.322963,0 0.586157,-0.262978 0.586157,-0.586809 z"
     id="path3451"
     style="fill:#293152;fill-opacity:1" />
  <path
     inkscape:connector-curvature="0"
     d="m 7.8683376,36.473726 c -0.09824,-0.107147 -0.218424,-0.200819 -0.3529549,-0.279277 -0.084326,-0.04826 -0.1766954,-0.09345 -0.2729758,-0.134748 l -0.059334,-0.02434 0.05369,-0.03477 c 0.045641,-0.02956 0.092154,-0.06172 0.1369234,-0.09715 0.099098,-0.0752 0.1858224,-0.164306 0.2586306,-0.264063 0.072597,-0.09998 0.1321407,-0.217338 0.1773467,-0.348826 0.045641,-0.131923 0.068892,-0.285363 0.068892,-0.457494 l 0,-0.01521 c 0,-0.371645 -0.1288808,-0.688304 -0.3829471,-0.941718 C 7.1667811,33.544683 6.6751654,33.377333 6.0372822,33.377333 l -2.4932881,0 0,5.554692 2.5710947,0 c 0.3042706,0 0.5855045,-0.03304 0.8367452,-0.09932 0.2542846,-0.06628 0.4746635,-0.164524 0.6548358,-0.291666 0.1825624,-0.129751 0.3253529,-0.293403 0.4255458,-0.486834 0.098669,-0.193863 0.1503962,-0.420112 0.1503962,-0.671571 l 0,-0.01521 c 0,-0.192559 -0.027593,-0.362952 -0.082155,-0.508566 -0.05369,-0.147356 -0.1314893,-0.276673 -0.2321154,-0.385341 z m -3.2633112,-0.837397 0,-1.299457 1.3159739,0 c 0.2949252,0 0.5222604,0.05695 0.6746124,0.171044 0.1493115,0.11149 0.2216839,0.263413 0.2216839,0.4651 l 0,0.01521 c 0,0.230813 -0.082584,0.396857 -0.2531975,0.508569 -0.1760426,0.116055 -0.415982,0.173869 -0.7143855,0.173869 l -1.2446872,0 0,-0.03435 z m 2.516325,1.645238 c 0,0.230377 -0.084327,0.398378 -0.2555889,0.512915 -0.1753898,0.117356 -0.4238072,0.176911 -0.7356848,0.176911 l -1.5250513,0 0,-1.380955 1.4550688,0 c 0.3629533,0 0.6359276,0.06172 0.8093628,0.181474 0.1686528,0.116275 0.2521094,0.278192 0.2521094,0.494007 l 0,0.01564 z M 21.149783,34.833052 c -0.359258,-0.01521 -0.663312,0.07128 -0.9026,0.259501 -0.148658,0.115182 -0.276671,0.256892 -0.381644,0.422284 l 0,-0.609194 -1.060167,0 0,4.025727 1.060602,0 0,-1.551784 c 0,-0.243851 0.02999,-0.459449 0.09128,-0.643315 0.05868,-0.179085 0.143444,-0.329701 0.25059,-0.447281 0.108238,-0.116924 0.237766,-0.20473 0.38686,-0.263412 0.149309,-0.05868 0.317745,-0.08909 0.501177,-0.08909 l 0.131055,0 0,-1.09994 -0.0765,-0.0029 z"
     id="path3453"
     style="fill:#293152;fill-opacity:1" />
  <path
     inkscape:connector-curvature="0"
     style="fill:#ffffff"
     d="m 3.5816737,-65.571537 c -8.857,-8.863 -23.2649997,-8.863 -32.1229997,-0.003 -8.856,8.857 -8.856,23.273 0,32.132 8.858,8.86 23.2699997,8.86 32.1229997,-0.002 8.8700003,-8.857 8.8700003,-23.273 0,-32.127 z"
     id="path4-2" />
</svg>
